<?xml version="1.0" encoding="utf-8"?>
<!-- Generator: Adobe Illustrator 21.1.0, SVG Export Plug-In . SVG Version: 6.00 Build 0)  -->
<svg version="1.1" id="Layer_1" xmlns="http://www.w3.org/2000/svg" xmlns:xlink="http://www.w3.org/1999/xlink" x="0px" y="0px"
	 viewBox="0 0 172.7 138" style="enable-background:new 0 0 172.7 138;" xml:space="preserve">
<style type="text/css">
	.st0{fill:#40baec;stroke:#40baec;stroke-width:0.25;stroke-miterlimit:10;}
	.st1{fill:#FFFFFF;stroke:#40baec;stroke-miterlimit:10;}
	.st2{fill:#40baec;stroke:#40baec;stroke-width:0.25;stroke-miterlimit:10;}
</style>
<path class="st0" d="M76.3,70.2c-3.9,5.4-3.1,13.3,1.5,18c4.8,4.9,11.7,4.1,12.5,4c8.8,2.3,15.7,8.9,17.5,17
	c2.4,10.9-4.6,23.3-17.2,27.5c-15-0.2-30.2-0.3-45.6-0.3c-14.8,0-29.5,0.1-44,0.3C30.5,91.5,59.9,46.3,89.3,1.2
	c27.3,45,54.7,90,82,135c-15.4-14.1-30.8-28.2-46.1-42.3c-3.4-3.3-16.5-15.8-28.4-25.2c-1.8-1.4-5-3.9-9.5-4
	C83.3,64.6,78.9,66.6,76.3,70.2z"/>
<path class="st1" d="M69.3,117.7"/>
<path class="st2" d="M15.8,140"/>
</svg>
