<svg width="576.43" height="733.94" xmlns="http://www.w3.org/2000/svg" xmlns:xlink="http://www.w3.org/1999/xlink">
 <defs>
  <linearGradient y2="0.000236" x2="0.499679" y1="1" x1="0.499679" id="b949346c-a93e-41e4-9400-5d42d50a4d6b">
   <stop stop-opacity="0.25" stop-color="gray" offset="0"/>
   <stop stop-opacity="0.12" stop-color="gray" offset="0.54"/>
   <stop stop-opacity="0.1" stop-color="gray" offset="1"/>
  </linearGradient>
  <linearGradient xlink:href="#b949346c-a93e-41e4-9400-5d42d50a4d6b" y2="144.06" x2="772.98" y1="816.94" x1="772.98" id="39be1328-9991-40e1-9fe5-ebb1d9df66f0"/>
 </defs>
 <title>login</title>
 <g>
  <title>background</title>
  <rect fill="none" id="canvas_background" height="402" width="582" y="-1" x="-1"/>
 </g>
 <g>
  <title>Layer 1</title>
  <rect id="svg_1" fill="#535461" height="657" width="444" y="17.06"/>
  <polygon id="svg_2" fill="#ff5656" points="323 691.06 0 674.06 0 17.06 323 0.06 323 691.06"/>
  <circle id="svg_3" fill="#535461" r="4" cy="377.06" cx="296"/>
  <polygon id="svg_4" fill="#535461" points="296 377.66 298.77 382.46 301.55 387.26 296 387.26 290.45 387.26 293.23 382.46 296 377.66"/>
  <polygon id="svg_5" fill="#c77979" points="337 691.06 317.22 691 318 0.06 337 0.06 337 691.06"/>
  <g id="svg_6" opacity="0.1">
   <polygon id="svg_7" fill="#bf0000" points="337.22 691 317.22 691 318.22 0 337.22 0 337.22 691"/>
  </g>
  <circle id="svg_8" opacity="0.1" r="13" cy="348.06" cx="296"/>
  <circle id="svg_9" fill="#535461" r="13" cy="346.06" cx="296"/>
  <path id="svg_10" fill="url(#b949346c-a93e-41e4-9400-5d42d50a4d6b)" d="m345.960001,197.55l0,7.16l30.26,-19.1l-3.18,-4l-1.48,0.87l-23.41,-34.3l0,-19.9l-8.91,0.8l0,-3.18c-23.5,-27.06 -25.93,3.18 -21.07,11.94s13.75,15.16 13.75,15.16c5,4.17 13.62,35.67 15.73,43.57l-1.69,0.98z"/>
  <path id="svg_11" fill="url(#39be1328-9991-40e1-9fe5-ebb1d9df66f0)" d="m542.280001,181.64l-4.13,-2.8l-0.18,0l-3.75,-11.14l-1.36,0.05l-4.66,-9.31a38.43,38.43 0 0 0 10.75,-7.89c7.28,-7.18 13.92,-19.5 12.28,-40.33c-0.34,-4.31 6.77,-15.47 -14.51,-21.27a29.28,29.28 0 0 0 -22.38,-25.44a81.15,81.15 0 0 0 -25.17,-2.2c-16.33,1.39 -30.65,13.39 -30.65,29.78c0,0 -4.93,1.52 -5.2,17.69l0.63,0a46.43,46.43 0 0 0 33.87,56.22l0.28,1.68c0.29,0.16 0.59,0.3 0.89,0.44l3,7.82l-9.69,5.82l-19.44,0.64a76,76 0 0 0 -26.1,5.59c-17.8,7.15 -50.21,14.01 -50.21,14.01l-10.33,-14.77l-30.24,20.84l19.9,30.39a46.06,46.06 0 0 0 10.35,5.9l0,0l0.09,0l0.11,0l0.9,0.36a81.84,81.84 0 0 0 15.21,4.26c12,2.41 30,4.2 52.53,0.81l-0.16,-0.05l0.56,-0.07l6.76,137l0.44,0l-3.23,23.46c-31.85,39.87 -40.61,155.3 -40.61,155.3l47.13,135.51c-0.89,3.87 -4.47,12.23 -18.86,18.09c-19.29,7.85 13.68,13.54 13.68,13.54l30,-9.21c2.48,5 16.41,11.59 16.41,11.59l59.69,-1.59l0,-29.46l-0.8,0s5.57,-53.32 1.59,-64.46s0,-65.26 0,-65.26l3.18,-115.4c11.14,-22.28 11.14,-41.38 2.39,-59.69a55.38,55.38 0 0 1 -5,-17.64c2.4,-5.65 3.41,-14.93 1,-30.11c-7.16,-45.14 15.92,-90.34 15.92,-90.34l0,0a77.76,77.76 0 0 0 -32.88,-78.36zm-35.6,528.12l-6.72,-24.11l-1.53,0.43l-29.12,-122.45l27.06,-56.5l0,54.12l15.12,105.85l0,35.8a15.84,15.84 0 0 1 -4.81,6.86z"/>
  <path id="svg_12" fill="#fda57d" d="m351.970001,138.85l0,19.15l22.77,33.36l-22.77,14.81s-10.12,-39 -15.57,-43.59c0,0 -8.57,-6.12 -13.24,-14.53s-2.34,-37.47 20.25,-11.47l0,3.06l8.56,-0.79z"/>
  <path id="svg_13" fill="#fda57d" d="m533.220001,184.44l-9,-18a3.34,3.34 0 0 0 -2.82,-1.84l-34.18,-1.78a3.34,3.34 0 0 0 -3.29,4.54l8.83,22.83a3.34,3.34 0 0 0 3.41,2.12l34.42,-3.06a3.34,3.34 0 0 0 2.63,-4.81z"/>
  <polygon id="svg_14" fill="#edeef9" points="530.73 176.7 536.54 193.75 476.82 191.61 499.76 177.84 530.73 176.7"/>
  <polygon id="svg_15" fill="#edeef9" points="378.94 193.9 375.88 190.08 349.88 205.37 349.88 212.26 378.94 193.9"/>
  <path id="svg_16" fill="#ff5656" d="m554.610001,363.07s-4.37,17.41 4,35s8.41,35.94 -2.29,57.35l-3.03,110.88s-3.82,52 0,62.7s-1.53,61.94 -1.53,61.94l-42.82,0l0,-34.4l-14.53,-101.7l0,-52l-26,54.29l29.81,125.41l-39,16.06l-48.94,-140.7s8.41,-110.88 39,-149.11l5.74,-41.68l99.59,-4.04z"/>
  <path id="svg_17" fill="#333" d="m552.530001,719.24l0,-28.29l-43.59,0s-3.06,11.47 -22.94,13.76s9.22,16.06 9.22,16.06l57.31,-1.53z"/>
  <path id="svg_18" fill="#333" d="m505.450001,701.63l-7.59,-27.26l-42,11.69s0.13,11.87 -18.41,19.41s13.15,13 13.15,13l54.85,-16.84z"/>
  <path id="svg_19" opacity="0.1" d="m455.030001,369.4l99.58,-4a55.71,55.71 0 0 0 -0.75,18.05c-4.56,10.72 -14.33,7.78 -14.33,7.78l-87.13,-2.68l2.63,-19.15z"/>
  <path id="svg_20" fill="#bf0000" d="m534.560001,187.4l4,2.69a74.71,74.71 0 0 1 31.59,75.33l0,0s-22.18,43.39 -15.29,86.78s-15.29,36.71 -15.29,36.71l-87.56,-2.69l-6.5,-131.65s-52.76,7.51 -76.47,-10.85l-19.12,-29.2l29.06,-20l9.94,14.18s31.14,-6.58 48.24,-13.51a73.07,73.07 0 0 1 25.06,-5.39l72.34,-2.4z"/>
  <path id="svg_21" opacity="0.1" d="m533.790001,399.22s5.35,26.76 -25.23,71.12"/>
  <path id="svg_22" opacity="0.1" d="m445.090001,254.7s-36.7,-12.23 -52.76,-12.23s-13.38,6.94 -13.38,6.94s25.61,11.4 66.14,5.29z"/>
  <path id="svg_23" opacity="0.1" d="m486.710001,164.35l14.61,1.75c0.46,0.06 0.88,0.64 1.13,1.54c-3.21,5.79 -7.23,9.25 -11.59,9.25a9,9 0 0 1 -4.43,-1.23l-1.12,-6.76c-0.38,-2.26 0.37,-4.67 1.4,-4.55z"/>
  <circle id="svg_24" fill="#fda57d" r="44.6" cy="130.75" cx="496.9"/>
  <path id="svg_25" opacity="0.1" d="m458.970001,105.5l0,0l2.25,2.06a7.71,7.71 0 0 1 -2.25,12.81l0,0s20,20 22.76,23.69s-0.46,13.47 -0.46,13.47s-8.83,16.26 37.63,12.54c0,0 30.66,-6.5 27.41,-47.85c-0.33,-4.14 6.5,-14.87 -13.94,-20.44l0,0a28.13,28.13 0 0 0 -21.5,-24.45a78,78 0 0 0 -24.18,-2.12a30.36,30.36 0 0 0 -27.72,30.29z"/>
  <path id="svg_26" fill="#72351c" d="m458.000001,103.06l0,0s-4.73,1.46 -5,17l6.73,-0.46s15.58,41.67 13.94,36.24c-6,-20 6,-16.26 8.83,-12.54s-0.46,13.47 -0.46,13.47s-8.82,16.23 37.63,12.54c0,0 30.66,-6.5 27.41,-47.85c-0.33,-4.14 6.5,-14.87 -13.94,-20.44l0,0a28.13,28.13 0 0 0 -21.5,-24.45a78,78 0 0 0 -24.18,-2.12c-15.7,1.34 -29.46,12.86 -29.46,28.61z"/>
  <line id="svg_27" opacity="0.1" stroke-width="2" stroke-miterlimit="10" stroke="#000" fill="none" y2="677.16" x2="52.82" y1="16.11" x1="52.82"/>
  <line id="svg_28" opacity="0.1" stroke-width="2" stroke-miterlimit="10" stroke="#000" fill="none" y2="679.16" x2="109.82" y1="12.11" x1="109.82"/>
  <line id="svg_29" opacity="0.1" stroke-width="2" stroke-miterlimit="10" stroke="#000" fill="none" y2="683" x2="166.82" y1="9.11" x1="166.82"/>
  <line id="svg_30" opacity="0.1" stroke-width="2" stroke-miterlimit="10" stroke="#000" fill="none" y2="687.16" x2="223.82" y1="6.11" x1="223.82"/>
  <line id="svg_31" opacity="0.1" stroke-width="2" stroke-miterlimit="10" stroke="#000" fill="none" y2="688" x2="280.82" y1="3.11" x1="280.82"/>
 </g>
</svg>